<?xml version="1.0" encoding="utf-8"?>
<svg version="1.1" xmlns:xlink="http://www.w3.org/1999/xlink" width="30px" height="30px" xmlns="http://www.w3.org/2000/svg">
  <g transform="matrix(1 0 0 1 -7 -10 )">
    <path d="M 25.72265625 13.7109375  C 25.7877604166667 14.0569196428571  25.8203125 14.4866071428571  25.8203125 15  C 25.8203125 15.5022321428571  25.7877604166667 15.9263392857143  25.72265625 16.2723214285714  L 21.11328125 16.0379464285714  L 25.48828125 17.34375  C 25.2408854166667 18.1584821428571  24.86328125 18.9453125  24.35546875 19.7042410714286  L 20.17578125 17.9799107142857  L 23.6328125 20.625  C 23.0598958333333 21.3058035714286  22.36328125 21.9084821428571  21.54296875 22.4330357142857  L 18.4765625 19.453125  L 20.48828125 23.0524553571429  C 19.6940104166667 23.4654017857143  18.7825520833333 23.7946428571429  17.75390625 24.0401785714286  L 16.2109375 20.2232142857143  L 16.484375 24.2410714285714  C 15.9895833333333 24.3080357142857  15.4947916666667 24.3415178571429  15 24.3415178571429  C 14.5052083333333 24.3415178571429  14.0104166666667 24.3080357142857  13.515625 24.2410714285714  L 13.7890625 20.2566964285714  L 12.265625 24.0401785714286  C 11.3020833333333 23.828125  10.390625 23.4988839285714  9.53125 23.0524553571429  L 11.54296875 19.453125  L 8.4765625 22.4330357142857  C 7.70833333333333 21.953125  7.00520833333333 21.3504464285714  6.3671875 20.625  L 9.84375 17.9799107142857  L 5.6640625 19.7209821428571  C 5.15625 18.9508928571429  4.77864583333333 18.1640625  4.53125 17.3604910714286  L 8.90625 16.0379464285714  L 4.27734375 16.2723214285714  C 4.21223958333333 15.8035714285714  4.1796875 15.3794642857143  4.1796875 15  C 4.1796875 14.609375  4.21223958333333 14.1796875  4.27734375 13.7109375  L 8.92578125 13.9453125  L 4.53125 12.6227678571429  C 4.77864583333333 11.8080357142857  5.15625 11.0267857142857  5.6640625 10.2790178571429  L 9.84375 12.0200892857143  L 6.38671875 9.35825892857143  C 6.98567708333333 8.67745535714286  7.68229166666667 8.07477678571428  8.4765625 7.55022321428571  L 11.5625 10.5301339285714  L 9.55078125 6.93080357142857  C 10.4231770833333 6.49553571428571  11.3346354166667 6.171875  12.28515625 5.95982142857143  L 13.7890625 9.70982142857143  L 13.53515625 5.75892857142857  C 14.00390625 5.69196428571429  14.4921875 5.65848214285714  15 5.65848214285714  C 15.4947916666667 5.65848214285714  15.9895833333333 5.69196428571429  16.484375 5.75892857142857  L 16.2109375 9.7265625  L 17.734375 5.95982142857143  C 18.6979166666667 6.171875  19.609375 6.50111607142857  20.46875 6.94754464285714  L 18.45703125 10.5301339285714  L 21.54296875 7.55022321428571  C 22.3372395833333 8.07477678571428  23.0338541666667 8.67745535714286  23.6328125 9.35825892857143  L 20.17578125 12.0200892857143  L 24.3359375 10.2790178571429  C 24.8177083333333 10.9709821428571  25.1953125 11.7578125  25.46875 12.6395089285714  L 21.09375 13.9453125  L 25.72265625 13.7109375  Z M 24.873046875 19.9302455357143  C 25.8951822916667 18.41796875  26.40625 16.7745535714286  26.40625 15  C 26.40625 13.2142857142857  25.8951822916667 11.5652901785714  24.873046875 10.0530133928571  C 23.8509114583333 8.54073660714285  22.4641927083333 7.34654017857143  20.712890625 6.47042410714286  C 18.9615885416667 5.59430803571428  17.0572916666667 5.15625  15 5.15625  C 13.4505208333333 5.15625  11.97265625 5.41573660714286  10.56640625 5.93470982142857  C 9.16015625 6.45368303571429  7.94596354166667 7.15122767857142  6.923828125 8.02734375  C 5.90169270833333 8.90345982142857  5.09114583333333 9.94977678571428  4.4921875 11.1662946428571  C 3.89322916666667 12.3828125  3.59375 13.6607142857143  3.59375 15  C 3.59375 16.328125  3.89322916666667 17.6004464285714  4.4921875 18.8169642857143  C 5.09114583333333 20.0334821428571  5.90169270833333 21.0797991071429  6.923828125 21.9559151785714  C 7.94596354166667 22.83203125  9.16015625 23.5295758928571  10.56640625 24.0485491071429  C 11.97265625 24.5675223214286  13.4505208333333 24.8270089285714  15 24.8270089285714  C 17.0572916666667 24.8270089285714  18.9615885416667 24.3889508928571  20.712890625 23.5128348214286  C 22.4641927083333 22.63671875  23.8509114583333 21.4425223214286  24.873046875 19.9302455357143  Z M 15 2.17633928571429  L 27.83203125 8.58816964285714  L 27.83203125 21.4118303571429  L 15 27.8236607142857  L 2.16796875 21.4118303571429  L 2.16796875 8.58816964285714  L 15 2.17633928571429  Z M 1.171875 21.8805803571429  L 15 28.7779017857143  L 28.828125 21.8805803571429  L 28.828125 8.10267857142857  L 15 1.22209821428571  L 1.171875 8.10267857142857  L 1.171875 21.8805803571429  Z M 15 0  L 30 7.5  L 30 22.5  L 15 30  L 0 22.5  L 0 7.5  L 15 0  Z " fill-rule="nonzero" fill="#000000" stroke="none" transform="matrix(1 0 0 1 7 10 )" />
  </g>
</svg>