<?xml version="1.0" encoding="utf-8"?>
<svg version="1.1" xmlns:xlink="http://www.w3.org/1999/xlink" width="288px" height="89px" xmlns="http://www.w3.org/2000/svg">
  <g transform="matrix(1 0 0 1 -518 -117 )">
    <path d="M 521 147  A 27 27 0 0 1 548 120 L 776 120  A 27 27 0 0 1 803 147 L 803 176  A 27 27 0 0 1 776 203 L 548 203  A 27 27 0 0 1 521 176 L 521 147  Z " fill-rule="nonzero" fill="#169bd5" stroke="none" fill-opacity="0.996078431372549" />
    <path d="M 519.5 147  A 28.5 28.5 0 0 1 548 118.5 L 776 118.5  A 28.5 28.5 0 0 1 804.5 147 L 804.5 176  A 28.5 28.5 0 0 1 776 204.5 L 548 204.5  A 28.5 28.5 0 0 1 519.5 176 L 519.5 147  Z " stroke-width="3" stroke="#ffffff" fill="none" stroke-opacity="0.996078431372549" />
  </g>
</svg>