<?xml version="1.0" encoding="utf-8"?>
<svg version="1.1" xmlns:xlink="http://www.w3.org/1999/xlink" width="360px" height="245px" xmlns="http://www.w3.org/2000/svg">
  <g transform="matrix(1 0 0 1 -1102 -971 )">
    <path d="M 1102 971  L 1462 971  L 1462 1216  L 1102 1216  L 1102 971  " fill-rule="nonzero" fill="#cccccc" stroke="none" />
    <path d="M 1119 988  L 1445 988  L 1445 1199  L 1119 1199  L 1119 988  " fill-rule="nonzero" fill="#ffffff" stroke="none" />
    <path d="M 1307.575 1044.5  C 1297.285 1044.5  1289.2 1036.415  1289.2 1026.125  C 1289.2 1015.835  1297.285 1007.75  1307.575 1007.75  C 1317.865 1007.75  1325.95 1015.835  1325.95 1026.125  C 1325.95 1036.415  1317.865 1044.5  1307.575 1044.5  " fill-rule="nonzero" fill="#cccccc" stroke="none" />
    <path d="M 1125 1193  L 1125 1083.55  L 1203.5 1033.8  L 1313.4 1111.74166666667  L 1376.2 1063.65  L 1439 1111.74166666667  L 1439 1193  L 1125 1193  " fill-rule="nonzero" fill="#169bd5" stroke="none" />
  </g>
</svg>